# AST/ASF file generated using VICON BodyLanguage
# -----------------------------------------------
:version 1.10
:name VICON
:units
  mass 1.0
  length 0.1
  angle deg
:documentation
   .ast/.asf automatically generated from VICON data using
   VICON BodyBuilder and BodyLanguage model FULLBODY5.MOD
:root
   order TX TY TZ RZ RY RX
   axis XYZ
   position 0 0 0  
   orientation 0 -0 0 
:bonedata
  begin
     id 1 
     name lhipjoint
     direction 0.969109 -0.218487 0.11442 
     length 0.544217 
     axis 0 -0 0  XYZ
  end
  begin
     id 2 
     name lfemur
     direction 0.173648 -0.984808 0  
     length 1.81499  
     axis 0 -0 10  XYZ
    dof rx ry rz
    limits (-180.0 180.0)
           (-180.0 180.0)
           (-180.0 180.0)
  end
  begin
     id 3 
     name ltibia
     direction 0.173515 -0.984831 0   
     length 1.55296   
     axis 0 -0 10   XYZ
    dof rx ry rz
    limits (-180.0 180.0)
           (-180.0 180.0)
           (-180.0 180.0)
  end
  begin
     id 4 
     name lfoot
     direction 7.36097e-012 -0.333012 0.942922   
     length 0.509062   
     axis -90 -1.73656e-015 10   XYZ
    dof rx ry rz
    limits (-180.0 180.0)
           (-180.0 180.0)
           (-180.0 180.0)
  end
  begin
     id 5 
     name ltoes
     direction 7.7847e-012 -4.42403e-011 1   
     length 0.249732   
     axis -90 -1.73656e-015 10   XYZ
    dof rx ry rz
    limits (-180.0 180.0)
           (-180.0 180.0)
           (-180.0 180.0)
  end
  begin
     id 6 
     name rhipjoint
     direction -0.966745 -0.226554 0.118645   
     length 0.524838  
     axis 0 -0 0  XYZ 
  end
  begin
     id 7 
     name rfemur
     direction -0.173648 -0.984808 0   
     length 1.84625   
     axis 0 -0 -10   XYZ
    dof rx ry rz
    limits (-180.0 180.0)
           (-180.0 180.0)
           (-180.0 180.0)
  end
  begin
     id 8 
     name rtibia
     direction -0.173714 -0.984796 0   
     length 1.577   
     axis 0 -0 -10   XYZ
    dof rx ry rz
    limits (-180.0 180.0)
           (-180.0 180.0)
           (-180.0 180.0)
 end
 begin
     id 9 
     name rfoot
     direction -0.0183819 -0.0406144 0.999006   
     length 0.490111  
     axis -90 1.73656e-015 -10   XYZ
    dof rx ry rz
    limits (-180.0 180.0)
           (-180.0 180.0)
           (-180.0 180.0)
  end
  begin
     id 10 
     name rtoes
     direction -7.79087e-012 -4.42375e-011 1   
     length 0.245053   
     axis -90 1.73656e-015 -10   XYZ
    dof rx ry rz
    limits (-180.0 180.0)
           (-180.0 180.0)
           (-180.0 180.0)
  end
  begin
     id 11 
     name lowerback
     direction -0.0664844 0.980601 0.184393   
     length 0.458979   
     axis 0 -0 0   XYZ
    dof rx ry rz
    limits (-180.0 180.0)
           (-180.0 180.0)
           (-180.0 180.0)
  end
  begin
     id 12 
     name upperback
     direction 0.0135995 0.999573 0.02588   
     length 0.463983   
     axis 0 -0 0   XYZ
    dof rx ry rz
    limits (-180.0 180.0)
           (-180.0 180.0)
           (-180.0 180.0)
  end
  begin
     id 13 
     name thorax
     direction 0.0468402 0.997311 -0.0563691   
     length 0.482746   
     axis 0 -0 0   XYZ
    dof rx ry rz
    limits (-180.0 180.0)
           (-180.0 180.0)
           (-180.0 180.0)
  end
  begin
     id 14 
     name lowerneck
     direction -0.00174311 0.988586 -0.150647   
     length 0.364383   
     axis 0 -0 0   XYZ
    dof rx ry rz
    limits (-180.0 180.0)
           (-180.0 180.0)
           (-180.0 180.0)
  end
  begin
     id 15 
     name upperneck
     direction -0.02653 0.999379 -0.0231908   
     length 0.361006   
     axis 0 -0 0   XYZ
    dof rx ry rz
    limits (-180.0 180.0)
           (-180.0 180.0)
           (-180.0 180.0)
  end
  begin
     id 16
     name head
     direction -0.00819207 0.999941 0.00714285  
     length 0.378714  
     axis 0 -0 0   XYZ
    dof rx ry rz
    limits (-180.0 180.0)
           (-180.0 180.0)
           (-180.0 180.0)
  end
  begin
     id 17 
     name lshoulderjoint
     direction 0.981627 -0.190809 0  
     length 0.612969  
     axis 0 -0 -11   XYZ
    dof rx ry rz
    limits (-180.0 180.0)
           (-180.0 180.0)
           (-180.0 180.0)
  end
  begin
     id 18 
     name lhumerus
     direction 0.48481 -0.87462 -9.72962e-027   
     length 1.19637   
     axis -180 5.14477e-009 -151   XYZ
    dof rx ry rz
    limits (-180.0 180.0)
           (-180.0 180.0)
           (-180.0 180.0)
  end
  begin
     id 19
     name lradius
     direction 0.48481 -0.87462 -2.35761e-026   
     length 0.637735   
     axis -180 5.14477e-009 -151   XYZ
    dof rx ry rz
    limits (-180.0 180.0)
           (-180.0 180.0)
           (-180.0 180.0)
  end
  begin
     id 20
     name lwrist
     direction 0.48481 -0.87462 -5.51856e-026   
     length 0.318868   
     axis -180 5.14477e-009 -151   XYZ
    dof rx ry rz
    limits (-180.0 180.0)
           (-180.0 180.0)
           (-180.0 180.0)
  end
  begin
     id 21 
     name lhand
     direction 0.477747 -0.861928 -0.169816   
     length 0.29526   
     axis -180 5.14477e-009 -151   XYZ
    dof rx ry rz
    limits (-180.0 180.0)
           (-180.0 180.0)
           (-180.0 180.0)
  end
  begin
     id 22 
     name rshoulderjoint
     direction -0.981627 -0.190809 0   
     length 0.572347  
     axis 0 -0 11   XYZ 
    dof rx ry rz
    limits (-180.0 180.0)
           (-180.0 180.0)
           (-180.0 180.0)
  end
  begin
     id 23 
     name rhumerus
     direction -0.48481 -0.87462 1.64836e-026  
     length 1.28846   
     axis 180 5.14477e-009 151   XYZ
    dof rx ry rz
    limits (-180.0 180.0)
           (-180.0 180.0)
           (-180.0 180.0)
  end
  begin
     id 24 
     name rradius
     direction -0.48481 -0.87462 2.86827e-026   
     length 0.62107   
     axis 180 5.14477e-009 151   XYZ
    dof rx ry rz
    limits (-180.0 180.0)
           (-180.0 180.0)
           (-180.0 180.0)
  end
  begin
     id 25 
     name rwrist
     direction -0.48481 -0.87462 5.20942e-026   
     length 0.310535   
     axis 180 5.14477e-009 151   XYZ
    dof rx ry rz
    limits (-180.0 180.0)
           (-180.0 180.0)
           (-180.0 180.0)
  end
  begin
     id 26
     name rhand
     direction -0.477664 -0.861515 -0.172133   
     length 0.291321   
     axis 180 5.14477e-009 151   XYZ
    dof rx ry rz
    limits (-180.0 180.0)
           (-180.0 180.0)
           (-180.0 180.0)
  end
:hierarchy
  begin
    root lhipjoint rhipjoint lowerback 
    lhipjoint lfemur
    lfemur ltibia
    ltibia lfoot
    lfoot ltoes
    rhipjoint rfemur
    rfemur rtibia
    rtibia rfoot
    rfoot rtoes
    lowerback upperback
    upperback thorax
    thorax lowerneck lshoulderjoint rshoulderjoint
    lowerneck upperneck
    upperneck head
    lshoulderjoint lhumerus
    lhumerus lradius
    lradius lwrist
    lwrist lhand
    rshoulderjoint rhumerus
    rhumerus rradius
    rradius rwrist
    rwrist rhand
  end

:FULLY-SPECIFIED
:DEGREES
2911
root 1.62134 3.66363 -0.428822 487.215 -70.7324 119.991
lowerback -24.4489 0.595554 -11.0865
upperback -6.34839 2.99808 -1.62589
thorax 5.97483 1.12012 5.36102
lowerneck 16.983 -1.4457 2.3975
upperneck 5.93301 -1.92598 -4.66469
head -1.05565 -0.991047 -1.79838
rshoulderjoint -2.3567 7.19905 -29.1807
rhumerus 343.32 -15.973 -410.582
rradius 23.6484 -6.04305e-014 -1.43125e-014
rwrist 3.55652e-013 8.81509 -3.70136e-014
rhand 9.26512 -7.532 31.84
lshoulderjoint -2.02265 -5.77585 30.3376
lhumerus 352.243 17.0604 414.131
lradius 19.8007 1.39944e-013 1.98785e-015
lwrist 3.79086e-013 -8.09886 -3.29291e-014
lhand 7.09283 6.64257 -35.0086
rfemur -25.0575 12.1621 4.29887
rtibia 60.4595 2.60408e-014 2.38542e-015
rfoot -178.123 -42.5157 165.069
rtoes 7.31528e-014 1.90833e-013 -3.02153e-014
lfemur -22.3069 -1.67181 -20.5657
ltibia -7.95139e-015 1.59028e-015 -1.59028e-014
lfoot 3.08864 6.64636 9.60036
ltoes 5.48646e-014 9.24784e-014 1.06946e-013
2912
root 1.59505 3.66908 -0.426542 486.275 -71.0287 119.22
lowerback -24.2902 0.438235 -10.9281
upperback -6.33835 2.73661 -1.51925
thorax 5.95397 1.00025 5.31357
lowerneck 17.0223 -1.41491 2.36687
upperneck 5.80931 -1.89143 -4.74926
head -1.10371 -0.969335 -1.82338
rshoulderjoint -2.35747 7.18195 -29.2265
rhumerus 343.17 -16.258 -410.532
rradius 23.7551 3.97569e-014 -3.7292e-013
rwrist 9.97868e-013 8.85585 -8.80377e-013
rhand 9.28837 -7.52805 31.7575
lshoulderjoint -2.01603 -5.75346 30.348
lhumerus 352.562 16.6485 414.217
lradius 20.3397 -2.70347e-014 -2.33373e-013
lwrist 1.00856e-012 -8.01922 -2.78638e-013
lhand 6.92944 6.60038 -35.1032
rfemur -25.5555 11.6767 4.42243
rtibia 59.4473 3.97569e-015 3.33958e-014
rfoot -176.78 -42.3139 163.755
rtoes 2.25819e-013 -1.30403e-013 -3.19646e-013
lfemur -21.7887 -2.07545 -20.4606
ltibia -8.42847e-014 -2.22639e-014 3.49861e-014
lfoot 2.79071 6.47951 9.56204
ltoes 2.33771e-013 -1.90628e-013 -1.90833e-014
2913
root 1.56928 3.67451 -0.424531 485.201 -71.2773 118.348
lowerback -24.2093 0.29743 -10.7282
upperback -6.33006 2.49617 -1.42653
thorax 5.96978 0.887691 5.2357
lowerneck 16.9859 -1.38943 2.36562
upperneck 5.76399 -1.8582 -4.81426
head -1.11287 -0.950283 -1.84689
rshoulderjoint -2.35623 7.16713 -29.2525
rhumerus 343.059 -16.602 -410.492
rradius 23.8362 -8.90555e-014 5.32743e-014
rwrist -2.73581e-014 8.81894 1.75414e-013
rhand 9.3614 -7.44193 31.699
lshoulderjoint -2.0326 -5.78536 30.3961
lhumerus 352.888 16.3156 414.3
lradius 20.8668 1.11319e-014 -4.29375e-014
lwrist -8.34767e-014 -7.84987 -9.47139e-014
lhand 6.85452 6.47915 -35.1302
rfemur -26.0477 11.3199 4.54179
rtibia 58.2576 -9.14409e-015 3.57812e-015
rfoot -175.219 -46.0677 162.03
rtoes -7.95139e-014 1.43125e-014 1.01778e-013
lfemur -21.3302 -2.47973 -20.3136
ltibia 1.59028e-014 3.18055e-015 -4.77083e-015
lfoot 2.50357 6.23825 9.50564
ltoes -3.89618e-014 9.35841e-015 -3.18055e-015
2914
root 1.54323 3.67981 -0.422401 484.239 -71.5687 117.586
lowerback -24.125 0.167488 -10.5145
upperback -6.30398 2.26889 -1.3251
thorax 6.00108 0.780884 5.16333
lowerneck 17.008 -1.35433 2.30245
upperneck 5.70013 -1.8241 -4.84868
head -1.13645 -0.932109 -1.84931
rshoulderjoint -2.37184 7.20979 -29.2646
rhumerus 342.914 -16.7553 -410.434
rradius 23.8918 9.54166e-015 -1.68569e-013
rwrist 9.12592e-013 8.86641 -4.5871e-013
rhand 9.27322 -7.64274 31.7599
lshoulderjoint -2.02234 -5.7533 30.4046
lhumerus 353.228 15.9674 414.36
lradius 21.3588 1.25632e-013 -1.34776e-013
lwrist 9.3422e-013 -7.81579 -2.18306e-013
lhand 6.74188 6.47747 -35.0787
rfemur -26.4044 11.0006 4.65058
rtibia 56.8822 1.88845e-014 4.77083e-015
rfoot -174.21 -46.3233 161.092
rtoes 1.59028e-013 1.59028e-015 -2.24229e-013
lfemur -20.8049 -2.86491 -20.1815
ltibia -4.92986e-014 -6.36111e-015 -7.95139e-015
lfoot 2.18858 6.21737 9.51585
ltoes 1.78509e-013 -2.84479e-014 4.6615e-014
2915
root 1.51987 3.68443 -0.421056 482.696 -71.7382 116.262
lowerback -24.0947 0.000187795 -10.3553
upperback -6.34522 2.00011 -1.20906
thorax 5.98611 0.655613 5.12649
lowerneck 16.9518 -1.34099 2.27772
upperneck 5.68757 -1.81122 -4.91645
head -1.13169 -0.924456 -1.86811
rshoulderjoint -2.36879 7.19627 -29.2745
rhumerus 342.805 -17.1946 -410.334
rradius 23.9156 7.15625e-014 -2.76708e-013
rwrist 1.0641e-012 8.93985 -7.34084e-013
rhand 9.32843 -7.60646 31.7517
lshoulderjoint -2.01376 -5.7181 30.4381
lhumerus 353.611 15.6396 414.427
lradius 21.804 -3.97569e-014 -1.64196e-013
lwrist 1.11678e-012 -7.65119 -1.33981e-013
lhand 6.78098 6.39457 -34.9313
rfemur -26.9309 10.6373 4.78078
rtibia 55.3645 -2.38542e-015 2.98177e-014
rfoot -173.593 -46.6255 160.64
rtoes 6.36111e-014 -1.03368e-013 -2.21049e-013
lfemur -20.5165 -3.34781 -19.9741
ltibia -3.4191e-014 -7.95139e-015 3.73715e-014
lfoot 1.95042 6.13589 9.52862
ltoes 1.10325e-013 -2.16094e-013 -2.5842e-015
2916
root 1.49613 3.68906 -0.419619 481.349 -71.9223 115.108
lowerback -24.0758 -0.1422 -10.2084
upperback -6.35287 1.7735 -1.09781
thorax 6.00705 0.548468 5.10352
lowerneck 16.8902 -1.32305 2.2306
upperneck 5.67085 -1.79558 -4.95159
head -1.12628 -0.916361 -1.87223
rshoulderjoint -2.35556 7.16465 -29.2535
rhumerus 342.726 -17.6522 -410.183
rradius 23.9026 1.55847e-013 -1.74931e-013
rwrist 5.24765e-013 8.91134 -5.32813e-013
rhand 9.46871 -7.47505 31.7462
lshoulderjoint -1.99023 -5.64932 30.4435
lhumerus 354.018 15.5063 414.484
lradius 22.2151 0 -2.5842e-014
lwrist 5.16663e-013 -7.64644 1.84523e-014
lhand 6.95116 6.33001 -34.6821
rfemur -27.3503 10.3504 4.86155
rtibia 53.7033 -3.97569e-015 1.78906e-014
rfoot -172.709 -46.8931 159.991
rtoes 6.36111e-014 -2.8943e-013 -1.89243e-013
lfemur -20.1658 -3.78589 -19.8101
ltibia -5.00937e-014 1.59028e-015 2.94201e-014
lfoot 1.67984 6.09776 9.53868
ltoes 1.6022e-013 -2.16607e-013 -9.34288e-015
2917
root 1.47333 3.69335 -0.418509 479.966 -72.0632 113.921
lowerback -24.0755 -0.273832 -10.075
upperback -6.38359 1.56174 -0.980462
thorax 6.00799 0.449199 5.09878
lowerneck 16.8541 -1.30849 2.15981
upperneck 5.66388 -1.78912 -4.98181
head -1.12178 -0.913652 -1.86988
rshoulderjoint -2.35485 7.16067 -29.2579
rhumerus 342.645 -17.836 -410.07
rradius 23.8547 -1.20861e-013 6.12257e-014
rwrist 2.57591e-014 8.96476 1.94803e-013
rhand 9.43013 -7.69755 31.8396
lshoulderjoint -1.97362 -5.59614 30.4622
lhumerus 354.416 15.3022 414.537
lradius 22.5958 1.31198e-013 9.93923e-015
lwrist 1.89384e-013 -7.75358 -6.01856e-014
lhand 7.09115 6.47979 -34.4339
rfemur -27.754 10.1291 4.9263
rtibia 51.9153 4.77083e-015 -1.19271e-015
rfoot -171.788 -47.1407 159.346
rtoes -3.18055e-015 -6.36111e-015 1.74931e-014
lfemur -19.8681 -4.21303 -19.639
ltibia -8.74653e-015 3.18055e-015 -4.77083e-015
lfoot 1.44247 5.9807 9.56804
ltoes 6.81831e-014 8.77448e-015 2.38542e-014
2918
root 1.45137 3.69704 -0.417706 478.534 -72.1713 112.713
lowerback -24.0764 -0.390884 -9.94119
upperback -6.40341 1.37001 -0.849454
thorax 6.0181 0.359348 5.11436
lowerneck 16.7039 -1.33457 2.15732
upperneck 5.6657 -1.82185 -5.05382
head -1.09844 -0.928492 -1.89105
rshoulderjoint -2.32404 7.06065 -29.2717
rhumerus 342.63 -18.1561 -409.927
rradius 23.7826 6.20208e-014 -2.46493e-014
rwrist 5.87791e-013 9.06393 -1.86805e-013
rhand 9.52822 -7.83932 31.8585
lshoulderjoint -1.94284 -5.49724 30.499
lhumerus 354.887 15.1678 414.613
lradius 22.9361 2.14687e-014 -1.19271e-015
lwrist 5.78053e-013 -7.94808 6.90452e-014
lhand 7.34662 6.65292 -34.1532
rfemur -28.1236 10.0195 4.99478
rtibia 50.0186 9.93923e-015 1.47101e-014
rfoot -170.892 -47.3424 158.711
rtoes 1.84472e-013 -2.14687e-013 -1.85267e-013
lfemur -19.6126 -4.63103 -19.4341
ltibia -7.95139e-014 -2.54444e-014 9.54166e-015
lfoot 1.23945 5.85925 9.59864
ltoes 2.63986e-013 -1.16724e-013 5.96354e-016
2919
root 1.43023 3.70041 -0.417534 477.169 -72.2767 111.55
lowerback -24.0556 -0.5181 -9.87519
upperback -6.44737 1.1739 -0.700847
thorax 5.98765 0.269048 5.18581
lowerneck 16.7042 -1.33009 2.06413
upperneck 5.6216 -1.83257 -5.0755
head -1.11261 -0.933713 -1.88093
rshoulderjoint -2.31292 7.03 -29.2635
rhumerus 342.557 -18.7503 -409.68
rradius 23.6816 -3.33958e-013 2.17868e-013
rwrist -2.07872e-013 9.28966 6.94518e-013
rhand 9.7422 -7.97947 31.8073
lshoulderjoint -1.91451 -5.4357 30.4364
lhumerus 355.313 15.1659 414.611
lradius 23.2394 4.10292e-013 1.16885e-013
lwrist 2.31354e-013 -8.18085 -8.35446e-014
lhand 7.70686 6.83716 -33.8831
rfemur -28.452 10.0423 5.02471
rtibia 48.0181 3.97569e-014 -4.37326e-015
rfoot -170.262 -47.5335 158.198
rtoes 8.90555e-014 2.71937e-013 -5.48646e-014
lfemur -19.3493 -5.02511 -19.2381
ltibia 1.98785e-014 -3.18055e-015 -2.8625e-014
lfoot 0.967455 5.88227 9.64791
ltoes -6.89783e-014 1.63606e-013 1.44019e-013
